<?xml version="1.0" encoding="UTF-8" standalone="no"?>
<svg
   xmlns:dc="http://purl.org/dc/elements/1.1/"
   xmlns:cc="http://creativecommons.org/ns#"
   xmlns:rdf="http://www.w3.org/1999/02/22-rdf-syntax-ns#"
   xmlns:svg="http://www.w3.org/2000/svg"
   xmlns="http://www.w3.org/2000/svg"
   xmlns:xlink="http://www.w3.org/1999/xlink"
   xmlns:sodipodi="http://sodipodi.sourceforge.net/DTD/sodipodi-0.dtd"
   xmlns:inkscape="http://www.inkscape.org/namespaces/inkscape"
   width="788.01862"
   height="1002.6646"
   viewBox="-120 -80 210.1383 267.37723"
   id="svg2"
   version="1.1"
   inkscape:version="0.91 r13725"
   sodipodi:docname="Flag_of_Kenya.svg">
  <metadata
     id="metadata38">
    <rdf:RDF>
      <cc:Work
         rdf:about="">
        <dc:format>image/svg+xml</dc:format>
        <dc:type
           rdf:resource="http://purl.org/dc/dcmitype/StillImage" />
        <dc:title></dc:title>
      </cc:Work>
    </rdf:RDF>
  </metadata>
  <sodipodi:namedview
     pagecolor="#ffffff"
     bordercolor="#666666"
     borderopacity="1"
     objecttolerance="10"
     gridtolerance="10"
     guidetolerance="10"
     inkscape:pageopacity="0"
     inkscape:pageshadow="2"
     inkscape:window-width="1366"
     inkscape:window-height="716"
     id="namedview36"
     showgrid="false"
     fit-margin-top="0"
     fit-margin-left="0"
     fit-margin-right="0"
     fit-margin-bottom="0"
     inkscape:zoom="0.55154329"
     inkscape:cx="260.81887"
     inkscape:cy="607.19374"
     inkscape:window-x="-8"
     inkscape:window-y="-8"
     inkscape:window-maximized="1"
     inkscape:current-layer="svg2" />
  <defs
     id="defs4">
    <path
       id="spearshape"
       d="m -1,55.425626 2,0 L 1,-38 c 2,-2 2,-5 2,-8 C 3,-48 3,-56 0,-64.66323 -3,-56 -3,-48 -3,-46 c 0,3 0,6 2,8 z"
       stroke-miterlimit="10"
       transform="matrix(0.8660254,0.5,-0.5,0.8660254,0,0)"
       inkscape:connector-curvature="0"
       style="stroke-miterlimit:10" />
    <!-- 32*sqrt(3), -112/sqrt(3)-->
    <clipPath
       clipPathUnits="userSpaceOnUse"
       id="clipPath4315">
      <path
         inkscape:connector-curvature="0"
         style="display:inline;opacity:0.54199997;fill:#fefe2e;fill-opacity:1;stroke:none;stroke-opacity:1"
         d="m 11.340529,-79.99996 -23.28437,22.864426 -10.59335,10.488362 0.76051,0.367195 0.57717,0.471669 0.34056,0.603285 -0.0262,0.812747 0.0262,0.341076 0.20997,0.288328 0.31445,0.288327 0.20998,0.288328 0.0784,0.288839 0,0.314446 -0.0522,0.603286 -0.10498,0.366684 -0.13111,0.262208 0,0.26221 0.20997,0.419943 0.31445,0.288328 0.3672,0.262208 0.31444,0.288329 0.0527,0.419431 -0.2622,0.681642 -0.34108,0.603285 -0.0522,0.445551 0.6294,0.23609 0.41943,-0.07836 1.02272,-0.367195 0.52442,0 0.57665,0.288327 0.0522,0.367196 -0.28833,0.340564 -1.23219,0.655523 0.0522,0.157735 0.39331,0.131104 0.34107,0.419433 -0.52441,0.314446 -0.18386,0.209971 0.34107,0.131105 0.20998,-0.02612 0.47167,-0.104986 0.4983,-0.02612 0.52442,-0.157734 0.28833,-0.02612 0,0.131104 0.57716,0.760508 0.41944,1.048837 0.28832,0.183342 0.13111,-0.131105 0.10498,-0.235579 0.28833,-0.262209 0.70776,-0.209972 0.47218,0.183342 0.83887,0.917732 0.4983,0.262209 0.4983,0.157734 0.36719,0.23558 0.18334,0.551048 -0.0522,2.123791 -0.26222,1.048836 -0.4983,0.760509 -0.23608,0.104474 -0.26221,0.07887 -0.23609,0.104986 -0.15723,0.236091 0.0262,0.288327 0.31495,0.550537 0.10499,0.288328 -0.0266,0.262209 -0.26221,0.629404 -0.0784,0.288327 0.0522,0.314958 0.20997,0.288328 0.26222,0.262208 0.18334,0.288329 0.34107,1.048835 0.26221,3.225377 0.28833,0.602773 0.5244225,0.341077 1.25881,0.340565 0.55053,0.367195 0.28833,0.550537 0.76051,3.985884 0.26221,0.445551 0.83886,0.917732 0.39331,0.629404 0.2361,0.26221 0.3672,0.07887 0.15721,-0.05275 0.28833,-0.236091 0.10499,-0.05223 0.0789,-0.05224 0.10448,-0.209971 0.0789,-0.02612 0.10499,0.05223 0.0522,0.07887 0.0262,0.104986 0.0528,0.02612 0.0522,0.07836 0.7605,0.367195 0.13111,0.02612 0.18334,0.209971 0.10499,0.236091 0.52441,1.6516102 0.39332,2.281526 1.10158,2.307133 0.26221,0.23609 0.36669,0.02612 0.20997,-0.183336 0.15723,-0.236091 0.23608,-0.02612 0.26222,0.367195 0.15721,1.284927 0.15723,0.497788 0.70827,0.73439 0.23609,0.44555068 -0.0528,0.603285 -0.39331,0.472181 -0.52442,0.288328 -0.47167,0.367192 -0.23608,0.65552232 0.15722,1.022207 2.67433,6.450752 0,0.497788 -0.23559,1.1799408 -0.0527,0.498299 0.0527,0.550537 0.10448,0.524419 0.18385,0.472181 0.2361,0.262208 0.60277,0.576656 0.1311,0.288838 -0.10498,0.288329 -0.47167,0.602774 -0.1311,0.314957 -0.0262,5.113077 -0.15774,0.576655 -0.81274,1.757108 -0.20946,0.288327 -0.26221,0.26221 -0.26221,0.104985 -0.55105,0.131105 -0.26221,0.131104 -0.60277,0.891103 -0.55053,2.124301 -1.54714,1.258297 0.0784,0.94385 0.47218,1.048837 0.2622,1.048836 -0.31444,1.075466 -0.83937,0.366683 -2.14992,0.236091 -0.55054,0.314958 -0.89161,0.864983 -1.28492,0.288327 -0.18335,0.4983 -0.0266,0.577167 -0.13111,0.235579 -0.15722,0.236091 -0.55054,0.104985 -0.41943,-0.236091 -0.44606,-0.104985 -0.52443,0.524418 -0.2622,0.472181 -0.20947,0.550537 -0.15721,0.550536 0,1.179941 -0.15774,0.524418 -0.6816425,1.678241 -0.760511,0.996598 -0.36668,1.048836 -0.44607,0.419433 -1.70435,0.838864 -0.20946,0.209972 -0.15774,0.943851 -0.41943,1.127703 -0.6294,0.681641 -0.838869,0.419432 -1.074961,0.393314 -0.78662,0.524418 -0.446059,0.812746 -0.65553,2.67484 -0.0784,0.23609 -0.18386,0.262208 -0.44554,0.524419 -0.13112,0.235579 0.0522,0.498299 0.28884,0.943851 -0.0789,0.551048 -0.236089,0.340565 -0.94385,0.73439 -3.854271,5.139195 -0.0789,0.524418 1.28493,4.247583 0.340571,1.153821 0.0266,0.996599 -1.52102,13.346544 0.2361,8.888478 1.99268,0 0.10499,0 0.41943,0 0.0522,0.708271 0.34107,0.209461 0.96997,0.07887 17.4896525,9.753979 76.7222665,42.84505 0.39332,0.62941 0.52441,3.19874 0.52443,3.19926 -0.47218,0.0522 -0.26222,0.20998 -0.10447,0.36719 0.0522,0.47167 -0.4983,0.0262 -0.6294,0.34107 -0.57665,0.47218 -0.39332,0.41943 -0.1311,0.2361 -0.13111,0.28833 -0.0522,0.31444 0.0261,0.26222 0.18335,0.18385 0.44606,0.0784 0.1311,0.18385 -0.10498,0.44556 -0.20997,0.4983 0.0789,0.36719 1.2583,-0.0789 0.55104,0.0522 0.55054,0.15774 0.4983,0.23557 0.36668,0.34108 0.20997,0.39332 0.44555,1.62548 0.26221,0.52443 0.3672,0.47217 37.233681,26.82419 0.0789,-0.1311 0.0784,-0.0266 0.10498,-0.0263 0.10499,-0.0262 0.52442,-0.3672 0.47219,-0.76051 0.57664,-0.52441 0.76052,0.20998 0.15722,-0.3672 0.0262,-0.15723 0.6294,0.76051 0.9966,0.26221 0.86498,-0.1311 0.28833,-0.36719 -0.41943,-0.57666 -0.0522,-0.20997 0.0784,-0.3672 0.15772,-0.0263 0.18335,0.10498 0.13111,0.0263 0.20997,-0.41943 0.15722,-0.39332 0.18334,-0.36719 0.34108,-0.26222 0.10499,0.3672 -0.0789,0.76051 0.15721,0.49778 0.89162,-2.70043 0.0789,-0.10499 0.36668,-0.34108 0.10499,-0.15722 -0.0261,-0.34056 0.0261,-0.1311 0.20997,-0.28885 0.23609,-0.23557 0.20946,-0.0267 0.23609,0.3672 0.28833,-0.76051 0.86549,-3.22486 0.83886,-2.12379 1.31105,-2.25541 0.10499,-0.62889 -0.52442,-0.47219 -0.91773,-0.28832 -0.8655,0.0784 -0.36668,0.49831 -0.1311,-0.26221 -0.0528,-0.26221 0,-0.55053 0.0789,-0.18334 0.23609,-0.0266 0.31445,0.0266 0.26221,0 0.81274,-0.20998 0.26221,-0.20998 0.18385,-0.47166 -0.68215,-0.15723 -0.31445,-0.1311 -0.2622,-0.23609 0.28832,-0.23609 0.31496,0.0262 0.65552,0.36719 0.47167,-0.36719 0.0261,0.36719 -0.0522,0.6033 0.18334,0.31444 0.20998,0.1311 0.15722,0.6033 0.26221,0.1311 0.23609,-0.1311 0.23609,-0.26222 0.18334,-0.34108 0.0528,-0.23609 0.10448,-0.18334 0.55104,-0.60329 0.0522,-0.44556 -0.28832,-0.15721 -0.57717,0.0522 -0.26221,-0.23609 -0.10447,-0.23608 -0.10499,-0.26222 -0.15722,-0.26221 -0.10499,-0.2622 0.15723,-0.18313 0.57666,-0.34108 0,0.89161 0.52442,0.39332 0.7605,-0.10499 0.68164,-0.65552 2.09768,-5.82084 0.0527,-0.83886 -0.0527,-0.39331 -0.18334,-0.39332 -0.28833,-0.20997 -0.91773,0.36719 -0.3672,-0.10498 -0.10498,-0.31445 0.31495,-0.3672 -0.52441,0 -0.31496,-0.23608 -0.0784,-0.39332 0.20946,-0.47218 0.28833,0.20997 -0.0261,0.10499 -0.10499,0.23609 0.68215,0.0522 0.13111,0.0262 0.34056,0.39331 0.13111,0.0789 0.57716,0.2361 0.20946,-0.0528 0.34108,-0.28833 0.28833,-0.60328 0.28833,-1.52052 0.70827,-1.12769 0.52441,-1.3894 0.44556,-0.76052 -0.0261,-0.15721 -0.10499,-0.13111 -0.0522,-0.15773 0.15722,-0.6289 0.0261,-0.2622 0,-0.3672 0.0261,-0.34108 0.20997,-0.26221 0.47167,-0.10498 -0.0522,0.36719 -0.2622,0.99659 -0.20998,0.44556 0.44607,-0.0784 0.36719,-0.28884 0.62889,-0.73387 0.34115,-0.20991 1.25881,-0.57666 0.39331,-0.26221 0.28833,-0.31496 0.23609,-0.39331 0.15722,-0.39332 0,-0.49778 -0.26221,-0.94437 0,-0.34056 0.89162,-1.28492 0.18334,-0.44556 0.10498,-1.33767 0.13111,-0.31445 0.55053,-0.73439 0.91774,-0.86498 0.20997,-0.31496 -0.0266,-0.28833 -0.52442,0.39332 -0.55054,0.0528 -0.31444,-0.31497 0.1311,-0.68163 -0.55054,-0.41944 0.0522,-0.8655 0.4983,-1.6516 0.0261,-0.2361 0.10499,-0.39331 -0.0261,-0.18385 -0.39331,-0.52442 -0.0528,-0.20946 0.10498,-0.41943 0.78663,-0.99659 0.4983,-1.10108 0.20946,-0.36719 0.31496,-0.31496 1.31104,-1.07496 0.76051,-0.47166 0.65552,-0.20997 1.10108,-0.78663 2.64821,-0.83887 0.86549,-0.0789 0.83887,0.18334 0.78662,0.3672 0.78663,0.15722 0.91773,-0.34056 1.59938,-1.88821 1.20657,-0.52443 0.83886,-0.5767 0.70776,-0.70776 0.31495,-0.60328 -0.18385,-0.3672 -0.73388,-0.4983 -0.18385,-0.39331 0.18385,-0.28833 0.0522,-0.15723 -0.1311,-0.0789 -0.20946,-0.0784 -0.15774,-0.18385 -0.0522,-0.23559 -0.0261,-0.23609 0.55054,0.28833 0.55053,-0.47218 0.57717,-0.70776 0.65552,-0.3672 0.39332,-0.0522 0.18334,-0.0789 -0.0522,-0.0522 0.28833,0.10499 0.0261,0.10447 -0.0522,0.13111 0.10447,0.20998 0.62941,0.68164 0.36719,0.23608 0.44555,0.15723 -0.83886,0.41943 0.0789,0.31496 0.57665,-0.1311 0.65553,-0.78663 0.28832,-0.68164 -0.0522,-0.28884 -0.23609,-0.36669 -0.34107,-0.23609 -0.31445,-0.0262 -0.28833,0.0522 -0.23609,-0.0789 -0.34107,-0.65551 -0.15723,-1.02222 -0.0261,-1.91432 -0.10498,-0.15723 -0.18334,-0.0527 -0.18386,-0.0522 -0.10447,-0.2622 0.0784,-0.15723 0.23609,-0.1311 0.0522,-0.18385 -0.0784,-0.41943 -0.23609,-0.28833 -0.34108,-0.10499 -0.41943,0.18385 0.0789,-0.31496 -0.0789,-0.34056 -0.18334,-0.39331 0.31444,-0.39332 0.26221,0.10448 0.23609,0.28884 0.26221,0.15722 0.47218,0.36719 0.49779,1.59937 0.47218,0.3672 0.57666,-0.70827 0.10498,-3.06764 0.91773,-0.70828 -0.39331,0.57717 -0.10499,0.31446 0.0789,0.36718 0,0.31445 -0.26221,0.73439 0,0.39332 0.10499,0.36719 0.18334,0.26221 0.23609,0.18334 0.34108,0.15723 0.41943,0.0267 0.28833,-0.28884 0.26221,-0.36669 0.70776,-0.28884 0.52442,-0.57665 0.31495,-0.18334 0.23609,0 1.02221,0.23558 0.76051,0.0789 0.23609,-0.60329 0.10499,-0.6289 0.52441,-0.55104 0.0261,0.57717 0.31445,0.28833 0.44606,0.0522 0.4983,-0.18335 0.39332,0.4983 0.55053,-0.34107 0.91773,-1.15382 1.49439,-1.33716 0.57717,-0.3672 0.1311,-0.44555 0.94385,-1.44215 1.99269,-2.04544 0.0261,-0.55054 0.0528,-1.65161 -0.0789,-0.47217 -0.31445,-0.57666 -11.58995,-14.972551 -2.67432,-3.434837 -0.28833,-22.759439 0,-13.137083 0,-13.083823 0,-13.110452 0,-13.110454 0,-13.1104518 -0.0789,-8.312334 0.36719,-0.7338782 9.54452,-9.413409 5.4014,-7.761285 8.81012,-12.612665 -1.28492,0.734389 -1.17994,-0.209971 -1.15383,-0.628893 -1.23217,-0.393314 -1.12771,0.628893 -0.36668,0.07887 -0.39331,-0.05224 -0.68216,-0.288839 -0.41943,-0.02612 -2.09767,0.4983 -0.70776,0.05224 -1.31105,0.367196 -5.61137,0.314958 -1.36329,-0.157735 -1.28492,-0.524419 -1.15383,-0.891101 -1.67824,-2.359881 -0.70776,-0.629404 -0.41943,-0.26221 -1.23269,-0.419431 -0.4983,-0.236091 -0.26221,-0.262209 -0.44555,-0.812748 -0.6294,-0.734391 -1.57326,-1.074954 -0.60277,-0.760509 -1.65212,1.074955 -8.33845,3.199257 -0.13111,0.157223 -0.15722,0.419433 -0.15723,0.131104 -4.71976,1.652122 -0.0789,0 -0.0784,-0.02663 -0.0789,-0.05224 -0.23609,-0.02612 -0.0261,0.104986 0.0261,0.183341 -0.1311,0.131105 -1.17994,0.603285 -7.05302,3.408718 -0.52442,0.628892 -1.25881,3.304244 -0.41943,0.812746 -0.4983,0.655522 -3.80203,3.460955 -0.65552,0.812746 -0.57665,1.757107 -0.44607,0.681641 -0.83886,0.02612 -0.41944,-0.262208 -0.18385,-0.340565 -0.15722,-0.367195 -0.20997,-0.288327 -0.81275,-0.28884 -3.27761,-0.07836 0.23609,-0.498299 -0.10499,-0.262209 -0.34056,-0.02612 -0.18385,0.104986 -1.02272,0.576655 -0.99608,0.02612 -1.02273,-0.20946 -2.70095,-1.232689 -0.23559,-0.07836 -1.52101,0.314446 -0.39331,0.02612 -0.39332,-0.157223 -0.44555,-0.05224 -1.10158,0.209461 -0.68165,0 -4.53642,-1.232179 -0.49778,-0.262208 -0.39332,-0.393314 -0.70827,-0.94385 0,0.157223 0,0.02612 -0.0262,0.341076 0,0.183342 -1.521024,-0.104986 -0.15721,-0.07836 -0.0262,-0.157735 -0.0522,-0.07836 -0.3672,0.131106 -0.1311,0.02612 -0.34107,-0.02612 -0.3672,-0.104987 -0.10447,-0.157223 -0.0527,-0.209971 -0.20946,-0.236091 -0.49829,-0.419432 -0.13111,-0.05224 -0.26221,0.104986 -0.0527,0.20946 0.0266,0.236091 -0.0266,0.157223 -1.33717,0.577166 -1.46827,0.131063 -5.585261,-0.629404 -0.83887,0.05223 -0.812742,0.209971 -0.314959,-0.05274 -0.602773,-0.524418 -0.78663,-0.235579 -0.34108,-0.183854 -0.39331,-0.471669 -0.68164,-1.075466 -0.4983,-0.497789 -22.65497,-14.579232 -0.15722,-0.02612 -0.15722,0 -0.13111,-0.02612 -0.10499,-0.131105 -0.131101,-0.603285 -0.10498,-0.235579 -0.157229,-0.23609 -0.20946,-0.07887 -0.524411,0.05275 -0.18386,-0.131105 -0.41943,-0.682152 -0.26221,-0.209461 -1.04884,-0.236091 -1.8877,-0.943849 -1.54714,-0.419433 -5.06083,0.02612 -0.20946,-0.05275 -0.39332,-0.235579 -0.23609,-0.05275 -8.96786,0.183853 -0.34056,-0.02663 -0.47218,-0.235579 -0.26221,-0.07887 -0.28833,0 -0.89161,0.131105 -3.82815,0.02612 -0.10499,0 -0.60277,-0.131105 -0.55104,-0.367195 -1.02222,-0.891102 -0.47218,-0.288839 -0.18334,-0.366684 0.0262,-0.446062 0.0784,-0.524418 -0.0262,-0.524418 -0.36719,-0.602774 -0.0262,-0.472178 -3.59206,-3.775915 -0.6294,-1.101072 -0.2361,-1.284926 0.13111,-5.480271 0.1311,-0.34056 0.9966,-1.25881 0.20946,-0.52442 0,-0.52442 -0.23557,-0.65552 -0.52442,-0.96997 -0.0789,-0.52442 0.18333,-0.60329 0.70828,-1.02271 -0.13111,-0.23609 -1.44214,-0.55054 -1.73048,-1.07496 -0.65553,-0.18333 -0.47218,0.1311 -0.47218,0.20946 -0.62889,0.1311 -0.62941,-0.15722 -1.1277,-0.91773 -0.60277,-0.36719 -0.47219,-0.10499 -0.55054,-0.0784 -0.55053,0 -0.47218,0.10498 -0.57666,0.36668 -1.07547,1.17994 -0.57665,0.39331 -0.6294,0.10499 -0.4983,-0.23609 -0.39332,-0.41943 -0.86498,-1.36328 -0.10499,-0.2361 0.0522,-0.34107 0.18385,-0.26221 0.20946,-0.28833 0.15773,-0.28833 -0.10499,-0.31443 z m 152.002401,197.39068 -0.31445,0.36719 -0.23609,0.52442 -0.52442,0.26221 -0.6294,0.18334 -0.47167,0.26221 -0.34108,0.60329 -0.31445,0.81274 0,0.60329 0.57666,-0.1311 0.0522,0.34056 0.10499,0.23608 0.20997,0.15723 0.31444,0 0.10499,-0.26221 -0.18334,-0.18334 -0.28884,-0.15722 -0.15722,-0.20997 0.0789,-0.3672 0.18334,-0.20946 0.23609,-0.0527 0.23609,0.18385 0.96997,-0.52441 0.47218,-0.15723 0.34056,-0.0267 0.0266,0.0528 0.10448,0.10499 0.1311,0.1311 0.18386,0.0522 0.15722,-0.0262 0.0789,-0.0789 0.0522,-0.0522 0.0789,-0.0262 0.15722,-0.10499 0.10499,-0.20997 0.0261,-0.28833 0,-0.28832 0.34057,0.55054 0.47218,-0.0789 0.20997,-0.55054 -0.4983,-0.83886 -0.55054,-0.28833 -0.78663,-0.26221 -0.70827,-0.0527 z"
         id="path4317" />
    </clipPath>
  </defs>
  <path
     inkscape:connector-curvature="0"
     style="display:inline;fill:#ffffff;stroke:#bb0000;stroke-width:0.5333333;stroke-miterlimit:4;stroke-dasharray:none;stroke-opacity:1"
     d="m -92.999798,0.30517912 -0.087,0.104688 -0.52447,0.288541 -0.471881,0.36718698 -0.23594,0.655731 0.15729,1.021874 2.674481,6.45104 0,0.497397 -0.23593,1.1802079 -0.0526,0.498437 0.0526,0.55052 0.10468,0.52448 0.18386,0.471875 0.23593,0.262501 0.60261,0.576563 0.13125,0.288541 -0.10469,0.288541 -0.47187,0.602603 -0.13125,0.315107 -0.026,5.113018 -0.15781,0.576563 -0.8125,1.757293 -0.2099,0.288541 -0.26198,0.261979 -0.26198,0.105208 -0.55104,0.130731 -0.2625,0.131248 -0.602601,0.891146 -0.55052,2.12448 -1.547399,1.258333 0.0786,0.94375 0.471879,1.048437 0.26249,1.048957 -0.314579,1.075523 -0.83906,0.366666 -2.15,0.235936 -0.55052,0.315104 -0.891662,0.865104 -1.2849,0.288542 -0.18333,0.497917 -0.0266,0.577082 -0.13125,0.235939 -0.1573,0.235939 -0.55052,0.105208 -0.41927,-0.236459 -0.44635,-0.104688 -0.52448,0.52448 -0.26198,0.471875 -0.20938,0.55052 -0.15729,0.55052 0,1.18021 -0.15781,0.524478 -0.68177,1.678125 -0.76042,0.996354 -0.36667,1.048958 -0.44583,0.419272 -1.70468,0.839061 -0.20938,0.209896 -0.15781,0.943749 -0.41927,1.128125 -0.62969,0.681251 -0.83854,0.419792 -1.075,0.393229 -0.78646,0.52448 -0.44636,0.812499 -0.65521,2.675 -0.0786,0.235938 -0.18385,0.262499 -0.44532,0.52396 -0.13125,0.235936 0.0521,0.497917 0.28906,0.94427 -0.0792,0.551042 -0.23594,0.340624 -0.94375,0.734376 -3.85468,5.139061 -0.0786,0.52448 1.2849,4.247397 0.34062,1.153645 0.0266,0.996875 -1.52083,13.346354 0.23593,8.888537 1.99271,0 0.10469,0 0.41979,0 0.0521,0.70834 0.34114,0.20937 0.96979,0.0792 17.489592,9.753645 10.09583,5.63802 168.693743,0 0.0115,-0.36719 -0.0786,-0.47187 -0.31467,-0.57656 -11.5901,-14.972915 -2.67395,-3.43489 -0.28856,-22.759377 0,-13.136978 0,-13.083852 0,-13.110415 0,-13.110418 0,-11.64218588 -158.864583,0 z"
     id="rect7-1" />
  <path
     style="display:inline;fill:#000000;fill-opacity:1;stroke:#000000;stroke-width:0.56;stroke-miterlimit:4;stroke-dasharray:none;stroke-opacity:1"
     inkscape:connector-curvature="0"
     d="m -83.568722,-79.69475 -23.284368,22.864583 -10.59323,10.48802 0.76042,0.367187 0.57708,0.471874 0.34063,0.603126 -0.0261,0.813021 0.0261,0.341144 0.20989,0.288021 0.31458,0.288542 0.2099,0.288021 0.0781,0.289064 0,0.314581 -0.0521,0.603126 -0.10469,0.366666 -0.13125,0.262502 0,0.261978 0.2099,0.419792 0.31458,0.288541 0.36719,0.261979 0.31458,0.288541 0.0526,0.419272 -0.2625,0.681771 -0.34115,0.603125 -0.0521,0.445832 0.62969,0.235939 0.41927,-0.07813 1.02291,-0.367187 0.52396,0 0.57709,0.288019 0.0521,0.367189 -0.28854,0.340624 -1.23229,0.655731 0.0526,0.15781 0.39323,0.130731 0.34114,0.419789 -0.52448,0.314064 -0.18385,0.209896 0.34115,0.131251 0.20989,-0.02605 0.47136,-0.105208 0.49843,-0.02605 0.52448,-0.157811 0.28854,-0.02605 0,0.131251 0.57709,0.760416 0.41927,1.048957 0.28854,0.183333 0.13073,-0.131248 0.10521,-0.235418 0.28854,-0.262499 0.70729,-0.209896 0.4724,0.183333 0.83906,0.917707 0.49792,0.262501 0.49843,0.157814 0.36719,0.235416 0.18333,0.551042 -0.0521,2.123957 -0.2625,1.048438 -0.49791,0.760938 -0.23646,0.104166 -0.26198,0.07917 -0.23594,0.104685 -0.15729,0.236459 0.026,0.288021 0.3151,0.55052 0.10469,0.288544 -0.0266,0.261979 -0.26198,0.629685 -0.0787,0.288021 0.0526,0.315104 0.20989,0.288544 0.26198,0.261979 0.18334,0.288541 0.34114,1.048437 0.2625,3.22552 0.28802,0.602605 0.52448,0.341144 1.25886,0.340627 0.55052,0.367187 0.28854,0.55052 0.76041,3.985938 0.26199,0.445832 0.83906,0.917709 0.39323,0.629168 0.23593,0.261979 0.367188,0.07916 0.15729,-0.0526 0.28854,-0.236459 0.10469,-0.05208 0.0792,-0.05208 0.10417,-0.209896 0.0792,-0.02656 0.10469,0.0526 0.0526,0.07864 0.0261,0.105208 0.0526,0.02605 0.0526,0.07813 0.76041,0.367186 0.13073,0.02605 0.18333,0.210416 0.10521,0.235938 0.52448,1.6515632 0.39323,2.28177 1.10156,2.306771 0.2625,0.236458 0.36667,0.02603 0.20989,-0.183333 0.1573,-0.236459 0.23593,-0.02605 0.26198,0.367187 0.15729,1.284896 0.15729,0.497917 0.70834,0.734373 0.23594,0.44583503 -0.0526,0.603125 -0.30625,0.367187 158.864577,0 0,-1.46822903 -0.0792,-8.312498 0.36717,-0.7338572 9.5448,-9.41354 5.40155,-7.760936 8.80992,-12.613021 -1.28491,0.734374 -1.17968,-0.209896 -1.15418,-0.628646 -1.23227,-0.393229 -1.12763,0.628648 -0.36666,0.07917 -0.39323,-0.0526 -0.68229,-0.288541 -0.41926,-0.02603 -2.09792,0.497915 -0.7073,0.0526 -1.31144,0.367187 -5.61147,0.314584 -1.36301,-0.157814 -1.28491,-0.523957 -1.15365,-0.891146 -1.67864,-2.359896 -0.70782,-0.629686 -0.41925,-0.261981 -1.23283,-0.419789 -0.49792,-0.235939 -0.2625,-0.261979 -0.44531,-0.813021 -0.62968,-0.734376 -1.57291,-1.075 -0.60314,-0.760416 -1.65208,1.075 -8.33854,3.19948 -0.13074,0.156771 -0.15729,0.419792 -0.15729,0.131248 -4.71979,1.652085 -0.0787,0 -0.0787,-0.02708 -0.0792,-0.05208 -0.23594,-0.02603 -0.026,0.105208 0.026,0.183334 -0.13125,0.130728 -1.17968,0.603645 -7.05313,3.408333 -0.52448,0.629168 -1.25885,3.304165 -0.41927,0.812501 -0.49844,0.655728 -3.80208,3.460939 -0.65521,0.813021 -0.57656,1.756771 -0.44636,0.68177 -0.83854,0.02605 -0.41979,-0.261979 -0.18386,-0.340624 -0.15729,-0.367187 -0.20989,-0.288544 -0.8125,-0.288541 -3.27761,-0.07865 0.23594,-0.498438 -0.10469,-0.261978 -0.34062,-0.02605 -0.18386,0.104688 -1.02291,0.577083 -0.99583,0.02605 -1.02292,-0.209376 -2.70104,-1.23281 -0.23542,-0.07865 -1.52135,0.314584 -0.39323,0.02605 -0.39323,-0.157293 -0.44531,-0.05208 -1.10157,0.209376 -0.68177,0 -4.5364602,-1.232293 -0.49792,-0.261979 -0.39323,-0.393229 -0.70833,-0.943749 0,0.15729 0,0.02605 -0.026,0.341146 0,0.183334 -1.521347,-0.105208 -0.15677,-0.07813 -0.0266,-0.157813 -0.0521,-0.07864 -0.36719,0.13125 -0.13125,0.02603 -0.34062,-0.02603 -0.36771,-0.10521 -0.10417,-0.156771 -0.0526,-0.210416 -0.20937,-0.235936 -0.49844,-0.419272 -0.13125,-0.0526 -0.26198,0.10521 -0.0531,0.209374 0.0271,0.236458 -0.0271,0.156771 -1.33696999,0.577605 -1.46823001,0.130728 -5.58542,-0.629165 -0.83854,0.05208 -0.81303,0.209896 -0.31458,-0.05261 -0.60312,-0.524477 -0.7864598,-0.235419 -0.34115,-0.183853 -0.39323,-0.471875 -0.68177,-1.07552 -0.49844,-0.497917 -22.65468,-14.579167 -0.15729,-0.02603 -0.15729,0 -0.13126,-0.02605 -0.10468,-0.131251 -0.13125,-0.603125 -0.10521,-0.235416 -0.15677,-0.236459 -0.2099,-0.07865 -0.52396,0.0526 -0.18385,-0.13073 -0.41979,-0.682291 -0.26198,-0.209376 -1.04896,-0.236459 -1.8875,-0.943749 -1.5474,-0.419269 -5.06093,0.02605 -0.20938,-0.0526 -0.39323,-0.235939 -0.23594,-0.0526 -8.96823,0.183854 -0.3401,-0.02656 -0.47239,-0.235416 -0.26198,-0.07917 -0.28854,0 -0.89167,0.13125 -3.82813,0.02605 -0.1052,0 -0.60261,-0.131251 -0.55104,-0.367189 -1.0224,-0.891144 -0.47187,-0.288542 -0.18333,-0.366666 0.026,-0.446355 0.0787,-0.52396 -0.0266,-0.524477 -0.36719,-0.603125 -0.026,-0.471875 -3.59219,-3.776043 -0.62917,-1.101039 -0.23593,-1.284896 0.13073,-5.480211 0.13125,-0.340624 0.99635,-1.258853 0.20989,-0.52448 0,-0.52448 -0.23593,-0.655208 -0.52448,-0.970312 -0.0787,-0.52448 0.18333,-0.603122 0.70834,-1.022918 -0.13126,-0.235938 -1.44218,-0.55052 -1.73021,-1.075 -0.65573,-0.183334 -0.4724,0.131251 -0.47187,0.209373 -0.62917,0.131251 -0.62916,-0.157291 -1.12761,-0.917709 -0.60312,-0.367186 -0.47188,-0.105208 -0.55052,-0.07813 -0.55052,0 -0.4724,0.104688 -0.57656,0.366667 -1.07552,1.180208 -0.57656,0.393229 -0.62917,0.105208 -0.49844,-0.236459 -0.39322,-0.419272 -0.86511,-1.363541 -0.10521,-0.235936 0.0521,-0.341146 0.18386,-0.261979 0.20989,-0.288541 0.15729,-0.288022 -0.10457,-0.314612 z"
     id="rect9" />
  <path
     inkscape:connector-curvature="0"
     style="display:inline;fill:#006600;stroke:#006600;stroke-width:0.56;stroke-miterlimit:4;stroke-dasharray:none;stroke-opacity:1"
     d="m -87.894588,106.97182 66.62656,37.20728 0.39323,0.62917 0.52448,3.19896 0.52448,3.19896 -0.4724,0.0526 -0.26198,0.20989 -0.10469,0.36718 0.0526,0.47136 -0.49843,0.0267 -0.62969,0.34114 -0.57656,0.47187 -0.39323,0.41928 -0.13125,0.23645 -0.13073,0.28803 -0.0526,0.31459 0.0266,0.2625 0.18333,0.18384 0.44583,0.0781 0.13125,0.18384 -0.1052,0.44584 -0.2099,0.49792 0.0792,0.3672 1.25781,-0.0787 0.55105,0.0521 0.55052,0.15779 0.49843,0.23544 0.36667,0.34115 0.2099,0.39322 0.44583,1.62552 0.26198,0.52448 0.36719,0.4724 37.233853,26.82395 0.0786,-0.13125 0.0787,-0.0267 0.10521,-0.0261 0.10469,-0.0267 0.52448,-0.36717 0.47239,-0.76043 0.57657,-0.52448 0.76041,0.21043 0.15729,-0.3672 0.0261,-0.15728 0.62968,0.7604 0.99636,0.262 0.8651,-0.13075 0.28802,-0.36717 -0.41927,-0.5771 -0.0521,-0.20989 0.0781,-0.3672 0.15781,-0.0261 0.18334,0.10469 0.13125,0.0267 0.20989,-0.41979 0.1573,-0.39323 0.18333,-0.3672 0.34115,-0.26197 0.10468,0.3672 -0.0786,0.7604 0.15729,0.49792 0.89167,-2.70051 0.0786,-0.10522 0.36667,-0.34115 0.1052,-0.15677 -0.026,-0.34062 0.026,-0.13125 0.2099,-0.28907 0.23594,-0.23541 0.20937,-0.0267 0.23646,0.3672 0.28802,-0.76042 0.86563,-3.22502 0.83906,-2.12394 1.31094,-2.2552 0.10468,-0.62918 -0.52395,-0.47186 -0.91771,-0.28856 -0.86563,0.0787 -0.36666,0.49842 -0.13125,-0.2625 -0.0526,-0.26198 0,-0.55053 0.0786,-0.18333 0.23594,-0.0267 0.31458,0.0267 0.2625,0 0.8125,-0.2104 0.2625,-0.2099 0.18385,-0.47136 -0.68229,-0.15728 -0.31458,-0.13125 -0.26198,-0.23595 0.28802,-0.23594 0.3151,0.0261 0.65573,0.3672 0.47136,-0.3672 0.026,0.3672 -0.0521,0.60312 0.18333,0.31458 0.2099,0.13126 0.15729,0.60312 0.26198,0.13125 0.23646,-0.13125 0.23594,-0.26198 0.18333,-0.34114 0.0526,-0.23646 0.10469,-0.18333 0.55104,-0.60315 0.0521,-0.4453 -0.28803,-0.15728 -0.57708,0.0521 -0.2625,-0.23595 -0.10417,-0.23645 -0.1052,-0.26198 -0.15729,-0.2625 -0.10469,-0.26198 0.15677,-0.18333 0.57708,-0.34064 0,0.89115 0.52396,0.39376 0.76094,-0.1052 0.68125,-0.65574 2.09791,-5.82082 0.0526,-0.83856 -0.0526,-0.39323 -0.18333,-0.39373 -0.28854,-0.20992 -0.91771,0.3672 -0.36719,-0.1047 -0.10468,-0.31458 0.31458,-0.36718 -0.52396,0 -0.3151,-0.23594 -0.0786,-0.39323 0.20937,-0.4724 0.28855,0.20989 -0.0261,0.10523 -0.1052,0.23592 0.68229,0.0521 0.13125,0.0267 0.34062,0.39325 0.13073,0.0786 0.5776,0.23592 0.20938,-0.0526 0.34115,-0.28802 0.28802,-0.60366 0.28854,-1.52029 0.70833,-1.12763 0.52448,-1.38957 0.44531,-0.76043 -0.026,-0.15728 -0.10521,-0.13125 -0.0521,-0.15781 0.1573,-0.62864 0.026,-0.26251 0,-0.36717 0.0261,-0.34064 0.20989,-0.26251 0.47188,-0.10466 -0.0521,0.36717 -0.2625,0.99634 -0.20989,0.44584 0.44635,-0.0786 0.36719,-0.28906 0.62865,-0.73384 0.34114,-0.20992 1.25885,-0.57656 0.39323,-0.26197 0.28854,-0.3151 0.23594,-0.39322 0.15729,-0.39323 0,-0.49792 -0.2625,-0.94427 0,-0.34064 0.89167,-1.28488 0.18333,-0.44584 0.10521,-1.33749 0.13125,-0.31459 0.55052,-0.73437 0.91771,-0.86512 0.20989,-0.31459 -0.0266,-0.28853 -0.52448,0.39323 -0.55052,0.0531 -0.31458,-0.3151 0.13125,-0.68177 -0.55052,-0.41928 0.0521,-0.86562 0.49844,-1.65156 0.026,-0.23594 0.10468,-0.39323 -0.026,-0.18385 -0.39322,-0.52448 -0.0526,-0.20938 0.10468,-0.41979 0.78698,-0.99635 0.49792,-1.10104 0.2099,-0.36719 0.31458,-0.31511 1.31146,-1.075 0.76041,-0.47187 0.65521,-0.2099 1.10105,-0.78646 2.64842,-0.83906 0.86563,-0.0786 0.83856,0.18334 0.78696,0.36718 0.78648,0.15729 0.91771,-0.34062 1.59946,-1.88802 1.20627,-0.52448 0.83904,-0.57708 0.70781,-0.7073 0.31512,-0.60364 -0.18386,-0.36719 -0.73384,-0.49844 -0.18387,-0.39323 0.18387,-0.28801 0.0521,-0.1573 -0.13126,-0.0792 -0.20938,-0.0781 -0.15782,-0.18385 -0.0521,-0.23594 -0.0261,-0.23594 0.55051,0.28854 0.55053,-0.47239 0.57707,-0.70782 0.65573,-0.36718 0.39323,-0.0521 0.18333,-0.0787 -0.0521,-0.0526 0.28803,0.10521 0.0261,0.10416 -0.0521,0.13125 0.10469,0.2099 0.62918,0.68177 0.36717,0.23594 0.44584,0.15729 -0.83907,0.41979 0.0787,0.31458 0.57707,-0.13072 0.65523,-0.78698 0.28853,-0.68125 -0.0521,-0.28907 -0.23645,-0.36666 -0.34115,-0.23594 -0.31408,-0.0266 -0.28853,0.0526 -0.23595,-0.0792 -0.34115,-0.65573 -0.15728,-1.02188 -0.0261,-1.91458 -0.1052,-0.15729 -0.18333,-0.0526 -0.18387,-0.0521 -0.10416,-0.26198 0.0781,-0.15729 0.23646,-0.13125 0.0521,-0.18385 -0.0786,-0.41928 -0.23595,-0.28854 -0.34115,-0.10469 -0.41925,0.18386 0.0786,-0.31511 -0.0786,-0.34062 -0.18333,-0.39323 0.31405,-0.39323 0.26251,0.10417 0.23592,0.28906 0.2625,0.15729 0.4719,0.36719 0.49789,1.59896 0.4724,0.36719 0.57656,-0.70782 0.10469,-3.06771 0.91771,-0.70833 -0.39323,0.57708 -0.10469,0.31459 0.0787,0.36719 0,0.31406 -0.262,0.73437 0,0.39375 0.10469,0.36719 0.18334,0.26198 0.23645,0.18333 0.34064,0.1573 0.41979,0.0266 0.28802,-0.28855 0.26248,-0.36666 0.70782,-0.28907 0.52448,-0.57656 0.31458,-0.18333 0.23646,0 1.02189,0.23541 0.7604,0.0792 0.23648,-0.60364 0.10467,-0.62865 0.52448,-0.55104 0.0261,0.57708 0.31458,0.28854 0.44582,0.0521 0.49845,-0.18333 0.39323,0.49844 0.55053,-0.34115 0.91771,-1.15417 1.49477,-1.33697 0.57709,-0.36719 0.13126,-0.44531 0.94373,-1.44219 1.99272,-2.04583 0.0261,-0.55052 0.0411,-1.28437 -168.69374,0 z m 156.328133,10.72396 -0.31408,0.36718 -0.23646,0.52448 -0.52394,0.2625 -0.62971,0.18334 -0.47187,0.26198 -0.34061,0.60312 -0.31459,0.81302 0,0.60313 0.57656,-0.13125 0.0521,0.34062 0.1052,0.23646 0.2099,0.15677 0.31458,0 0.1047,-0.26198 -0.18334,-0.18333 -0.28853,-0.15729 -0.15731,-0.2099 0.0786,-0.36719 0.18334,-0.20937 0.23648,-0.0526 0.23592,0.18385 0.96978,-0.52448 0.4724,-0.15729 0.34064,-0.0266 0.0267,0.0526 0.10416,0.10521 0.13126,0.13073 0.18384,0.0521 0.1573,-0.026 0.0786,-0.0786 0.0526,-0.0526 0.0786,-0.026 0.15728,-0.10469 0.10523,-0.21041 0.0261,-0.28802 0,-0.28855 0.34064,0.55052 0.47187,-0.0786 0.20989,-0.55052 -0.49792,-0.83906 -0.55051,-0.28802 -0.78698,-0.2625 -0.70832,-0.0526 z"
     id="rect11" />
  <g
     id="g4250"
     clip-path="url(#clipPath4315)"
     transform="translate(-94.909255,0.30522032)">
    <g
       transform="matrix(1.6666667,0,0,1.6666667,80,53.333339)"
       id="spear">
      <use
         height="100%"
         width="100%"
         y="0"
         x="0"
         style="stroke:#000000"
         id="use14"
         xlink:href="#spearshape" />
      <use
         height="100%"
         width="100%"
         y="0"
         x="0"
         style="fill:#ffffff"
         id="use16"
         xlink:href="#spearshape" />
    </g>
    <use
       height="100%"
       width="100%"
       y="0"
       x="0"
       id="use18"
       transform="matrix(-1,0,0,1,160,1.7529297e-6)"
       xlink:href="#spear" />
    <path
       style="fill:#bb0000"
       inkscape:connector-curvature="0"
       id="path20"
       d="m -120,13.333339 0,80 168.333333,0 C 53.333333,106.66667 70,133.33334 80,133.33334 c 10,0 26.66667,-26.66667 31.66667,-40.000001 l 168.33333,0 0,-80 -168.33333,0 C 106.66667,1.7529297e-6 90,-26.666658 80,-26.666658 c -10,0 -26.666667,26.6666597529297 -31.666667,39.999997 z" />
    <path
       inkscape:connector-curvature="0"
       d="m 111.66667,93.333339 c 5,-13.333334 8.33333,-26.666667 8.33333,-40 0,-13.333334 -3.33333,-26.666667 -8.33333,-40 -5,13.333333 -8.33334,26.666666 -8.33334,40 0,13.333333 3.33334,26.666666 8.33334,40"
       id="deco_r" />
    <use
       height="100%"
       width="100%"
       y="0"
       x="0"
       id="use23"
       transform="matrix(-1,0,0,1,160,1.7529297e-6)"
       xlink:href="#deco_r" />
    <g
       style="fill:#ffffff"
       transform="matrix(1.6666667,0,0,1.6666667,80,53.333339)"
       id="g25">
      <ellipse
         cy="0"
         cx="0"
         id="ellipse27"
         ry="6"
         rx="4" />
      <path
         inkscape:connector-curvature="0"
         d="m 1,5.85 c 0,0 4,8 4,21 0,13 -4,21 -4,21 z"
         id="deco_br" />
      <use
         height="100%"
         width="100%"
         y="0"
         x="0"
         id="use30"
         transform="scale(-1,-1)"
         xlink:href="#deco_br" />
      <use
         height="100%"
         width="100%"
         y="0"
         x="0"
         id="use32"
         transform="scale(-1,1)"
         xlink:href="#deco_br" />
      <use
         height="100%"
         width="100%"
         y="0"
         x="0"
         id="use34"
         transform="scale(1,-1)"
         xlink:href="#deco_br" />
    </g>
  </g>
  <path
     style="display:inline;fill:none;fill-rule:evenodd;stroke:#000000;stroke-width:0.5333333;stroke-linecap:butt;stroke-linejoin:miter;stroke-miterlimit:4;stroke-dasharray:none;stroke-opacity:1"
     d="m 25.693625,-26.492908 0.8128,0.2888 0.21014,0.288266 0.15706,0.3672 0.184,0.3408 0.41947,0.262133 0.83867,-0.02613 0.44613,-0.6816 0.57653,-1.757066 0.65574,-0.8128 3.80186,-3.461067 0.4984,-0.655466 0.41947,-0.8128 1.25867,-3.304267 0.52453,-0.6288 7.05307,-3.4088"
     id="path4444"
     inkscape:connector-curvature="0"
     sodipodi:nodetypes="cccccccccccccccc" />
  <path
     style="fill:none;fill-rule:evenodd;stroke:#006600;stroke-width:0.5333333;stroke-linecap:butt;stroke-linejoin:miter;stroke-miterlimit:4;stroke-dasharray:none;stroke-opacity:1"
     d="m -69.219503,117.40085 c 6.39351,3.57043 12.78702,7.14085 19.18053,10.71127"
     id="path4469"
     inkscape:connector-curvature="0"
     sodipodi:nodetypes="cc" />
</svg>
